<svg xmlns="http://www.w3.org/2000/svg" width="79.837" height="91.578" viewBox="0 0 79.837 91.578">
  <g id="Polygon_10" data-name="Polygon 10" transform="translate(79.837) rotate(90)" fill="#fff">
    <path d="M 62.89083862304688 78.83721923828125 L 28.68715476989746 78.83721923828125 C 25.47141265869141 78.83721923828125 22.47990798950195 77.10433197021484 20.88003730773926 74.31482696533203 L 3.720837116241455 44.39620590209961 C 2.136813640594482 41.63432312011719 2.136813640594482 38.20287704467773 3.720837116241455 35.44098281860352 L 20.88004875183105 5.522394180297852 C 22.47990798950195 2.732876300811768 25.47141265869141 1.000005841255188 28.68715476989746 1.000005841255188 L 62.89082717895508 1.000005841255188 C 66.1065673828125 1.000005841255188 69.09808349609375 2.732876300811768 70.69794464111328 5.522382259368896 L 87.85713958740234 35.44100570678711 C 89.44117736816406 38.20288848876953 89.44117736816406 41.63432312011719 87.85713958740234 44.39621734619141 L 70.69794464111328 74.3148193359375 C 69.09807586669922 77.10433197021484 66.1065673828125 78.83721923828125 62.89083862304688 78.83721923828125 Z" stroke="none"/>
    <path d="M 28.68714904785156 1.999992370605469 C 25.82872009277344 1.999992370605469 23.16960144042969 3.540328979492188 21.74749755859375 6.0198974609375 L 4.588279724121094 35.93851089477539 C 3.180267333984375 38.39351272583008 3.180267333984375 41.44368743896484 4.588294982910156 43.89870071411133 L 21.74749755859375 73.81729888916016 C 23.16960144042969 76.296875 25.82872009277344 77.83720397949219 28.68714904785156 77.83720397949219 L 62.89083099365234 77.83720397949219 C 65.74925231933594 77.83720397949219 68.40837860107422 76.296875 69.83048248291016 73.81729888916016 L 86.98968505859375 43.89870071411133 C 88.39771270751953 41.44368743896484 88.39771270751953 38.39352416992188 86.98968505859375 35.93851089477539 L 69.83049774169922 6.0198974609375 C 68.40837860107422 3.540328979492188 65.74925231933594 1.999992370605469 62.89083099365234 1.999992370605469 L 28.68714904785156 1.999992370605469 M 28.68714904785156 -7.62939453125e-06 L 62.89083099365234 -7.62939453125e-06 C 66.47374725341797 -7.62939453125e-06 69.78285217285156 1.916862487792969 71.56539916992188 5.024871826171875 L 88.72460174560547 34.94348526000977 C 90.49184417724609 38.02483367919922 90.49184417724609 41.8123779296875 88.72460174560547 44.89372634887695 L 71.56539916992188 74.81232452392578 C 69.78285217285156 77.92034912109375 66.47374725341797 79.83720397949219 62.89083099365234 79.83720397949219 L 28.68714904785156 79.83720397949219 C 25.10423278808594 79.83720397949219 21.79512023925781 77.92034912109375 20.0125732421875 74.81232452392578 L 2.853378295898438 44.89372634887695 C 1.086135864257812 41.8123779296875 1.086135864257812 38.02481842041016 2.853378295898438 34.94348526000977 L 20.0125732421875 5.024871826171875 C 21.79512023925781 1.916862487792969 25.10424041748047 -7.62939453125e-06 28.68714904785156 -7.62939453125e-06 Z" stroke="none" fill="#ffbd00"/>
  </g>
</svg>
